<svg width="25" height="25" viewBox="0 0 25 25" fill="none" xmlns="http://www.w3.org/2000/svg">
<path d="M9.5 22.8711H15.5C20.5 22.8711 22.5 20.8711 22.5 15.8711V9.87109C22.5 4.87109 20.5 2.87109 15.5 2.87109H9.5C4.5 2.87109 2.5 4.87109 2.5 9.87109V15.8711C2.5 20.8711 4.5 22.8711 9.5 22.8711Z" stroke="white" stroke-width="1.5" stroke-linecap="round" stroke-linejoin="round"/>
<path d="M7.48945 15.9509L9.42944 17.8909C10.0694 18.5309 11.1295 18.5309 11.7695 17.8909L17.5195 12.1409C18.1595 11.5009 18.1595 10.4408 17.5195 9.80085L15.5794 7.86086C14.9394 7.22086 13.8795 7.22086 13.2395 7.86086L7.48945 13.6109C6.83945 14.2509 6.83945 15.3009 7.48945 15.9509Z" stroke="white" stroke-width="1.5" stroke-linecap="round" stroke-linejoin="round"/>
<path d="M9.80859 11.291L14.0786 15.561" stroke="white" stroke-width="1.5" stroke-linecap="round" stroke-linejoin="round"/>
</svg>
