<svg width="25" height="25" viewBox="0 0 25 25" fill="none" xmlns="http://www.w3.org/2000/svg">
<path d="M9.5 9.25195H14.1846C15.2231 9.25195 16.0654 10.1866 16.0654 11.1327C16.0654 12.1712 15.2231 13.0135 14.1846 13.0135H9.5V9.25195Z" stroke="white" stroke-width="1.5" stroke-miterlimit="10" stroke-linecap="round" stroke-linejoin="round"/>
<path d="M9.5 13.002H14.8539C16.0423 13.002 17 13.8443 17 14.8827C17 15.9212 16.0423 16.7635 14.8539 16.7635H9.5V13.002Z" stroke="white" stroke-width="1.5" stroke-miterlimit="10" stroke-linecap="round" stroke-linejoin="round"/>
<path d="M12.7773 16.752V18.6327" stroke="white" stroke-width="1.5" stroke-miterlimit="10" stroke-linecap="round" stroke-linejoin="round"/>
<path d="M10.4355 16.752V18.6327" stroke="white" stroke-width="1.5" stroke-miterlimit="10" stroke-linecap="round" stroke-linejoin="round"/>
<path d="M12.7773 7.37109V9.25187" stroke="white" stroke-width="1.5" stroke-miterlimit="10" stroke-linecap="round" stroke-linejoin="round"/>
<path d="M10.4355 7.37109V9.25187" stroke="white" stroke-width="1.5" stroke-miterlimit="10" stroke-linecap="round" stroke-linejoin="round"/>
<path d="M11.2769 9.25195H8" stroke="white" stroke-width="1.5" stroke-miterlimit="10" stroke-linecap="round" stroke-linejoin="round"/>
<path d="M11.2769 16.752H8" stroke="white" stroke-width="1.5" stroke-miterlimit="10" stroke-linecap="round" stroke-linejoin="round"/>
<path d="M12.5 22.8711C18.0228 22.8711 22.5 18.3939 22.5 12.8711C22.5 7.34825 18.0228 2.87109 12.5 2.87109C6.97715 2.87109 2.5 7.34825 2.5 12.8711C2.5 18.3939 6.97715 22.8711 12.5 22.8711Z" stroke="white" stroke-width="1.5" stroke-miterlimit="10"/>
</svg>
