<svg width="25" height="25" viewBox="0 0 25 25" fill="none" xmlns="http://www.w3.org/2000/svg">
<path d="M10.0695 13.3311L7.01953 16.3811" stroke="white" stroke-width="1.5" stroke-miterlimit="10" stroke-linecap="round" stroke-linejoin="round"/>
<path d="M7.05078 13.3613L10.1008 16.4113" stroke="white" stroke-width="1.5" stroke-miterlimit="10" stroke-linecap="round" stroke-linejoin="round"/>
<path d="M14.0293 14.8711H14.0393" stroke="white" stroke-width="2" stroke-miterlimit="10" stroke-linecap="round" stroke-linejoin="round"/>
<path d="M17.9707 14.8711H17.9807" stroke="white" stroke-width="2" stroke-miterlimit="10" stroke-linecap="round" stroke-linejoin="round"/>
<path d="M16 16.8511V16.8311" stroke="white" stroke-width="2" stroke-miterlimit="10" stroke-linecap="round" stroke-linejoin="round"/>
<path d="M16 12.9106V12.8906" stroke="white" stroke-width="2" stroke-miterlimit="10" stroke-linecap="round" stroke-linejoin="round"/>
<path d="M9.5 22.8711H15.5C20.5 22.8711 22.5 20.8711 22.5 15.8711V13.8711C22.5 8.87109 20.5 6.87109 15.5 6.87109H9.5C4.5 6.87109 2.5 8.87109 2.5 13.8711V15.8711C2.5 20.8711 4.5 22.8711 9.5 22.8711Z" stroke="white" stroke-width="1.5" stroke-linecap="round" stroke-linejoin="round"/>
<path d="M13.5105 2.87109L13.5005 3.88109C13.4905 4.43109 13.0505 4.87109 12.5005 4.87109H12.4705C11.9205 4.87109 11.4805 5.32109 11.4805 5.87109C11.4805 6.42109 11.9305 6.87109 12.4805 6.87109H13.4805" stroke="white" stroke-width="1.5" stroke-linecap="round" stroke-linejoin="round"/>
</svg>
