<svg width="25" height="25" viewBox="0 0 25 25" fill="none" xmlns="http://www.w3.org/2000/svg">
<path d="M17.5 21.3711H7.5C4.5 21.3711 2.5 19.8711 2.5 16.3711V9.37109C2.5 5.87109 4.5 4.37109 7.5 4.37109H17.5C20.5 4.37109 22.5 5.87109 22.5 9.37109V16.3711C22.5 19.8711 20.5 21.3711 17.5 21.3711Z" stroke="white" stroke-width="1.5" stroke-miterlimit="10" stroke-linecap="round" stroke-linejoin="round"/>
<path d="M12.5 15.8711C14.1569 15.8711 15.5 14.5279 15.5 12.8711C15.5 11.2142 14.1569 9.87109 12.5 9.87109C10.8431 9.87109 9.5 11.2142 9.5 12.8711C9.5 14.5279 10.8431 15.8711 12.5 15.8711Z" stroke="white" stroke-width="1.5" stroke-miterlimit="10" stroke-linecap="round" stroke-linejoin="round"/>
<path d="M6 10.3711V15.3711" stroke="white" stroke-width="1.5" stroke-miterlimit="10" stroke-linecap="round" stroke-linejoin="round"/>
<path d="M19 10.3711V15.3711" stroke="white" stroke-width="1.5" stroke-miterlimit="10" stroke-linecap="round" stroke-linejoin="round"/>
</svg>
