<svg width="25" height="25" viewBox="0 0 25 25" fill="none" xmlns="http://www.w3.org/2000/svg">
<path d="M21.5802 9.45113V16.2911C21.5802 17.4111 20.9802 18.4511 20.0102 19.0211L14.0702 22.4511C13.1002 23.0111 11.9002 23.0111 10.9202 22.4511L4.98016 19.0211C4.01016 18.4611 3.41016 17.4211 3.41016 16.2911V9.45113C3.41016 8.33113 4.01016 7.29109 4.98016 6.72109L10.9202 3.29109C11.8902 2.73109 13.0902 2.73109 14.0702 3.29109L20.0102 6.72109C20.9802 7.29109 21.5802 8.32113 21.5802 9.45113Z" stroke="white" stroke-width="1.5" stroke-linecap="round" stroke-linejoin="round"/>
<path d="M12.4999 11.8709C13.7867 11.8709 14.8299 10.8277 14.8299 9.54089C14.8299 8.25407 13.7867 7.21094 12.4999 7.21094C11.2131 7.21094 10.1699 8.25407 10.1699 9.54089C10.1699 10.8277 11.2131 11.8709 12.4999 11.8709Z" stroke="white" stroke-width="1.5" stroke-linecap="round" stroke-linejoin="round"/>
<path d="M16.5 17.5305C16.5 15.7305 14.71 14.2705 12.5 14.2705C10.29 14.2705 8.5 15.7305 8.5 17.5305" stroke="white" stroke-width="1.5" stroke-linecap="round" stroke-linejoin="round"/>
</svg>
